<?xml version="1.0" standalone="no"?>
<!DOCTYPE svg PUBLIC "-//W3C//DTD SVG 20010904//EN"
 "http://www.w3.org/TR/2001/REC-SVG-20010904/DTD/svg10.dtd">
<svg version="1.0" xmlns="http://www.w3.org/2000/svg"
 width="892.000000pt" height="1218.000000pt" viewBox="0 0 892.000000 1218.000000"
 preserveAspectRatio="xMidYMid meet">

<g transform="translate(0.000000,1218.000000) scale(0.100000,-0.100000)"
fill="#000000" stroke="none">
<path d="M635 12151 c-162 -36 -295 -111 -407 -229 -107 -114 -171 -239 -203
-394 -20 -102 -22 -706 -3 -727 10 -11 10 -13 1 -7 -10 6 -13 -60 -13 -314 l0
-321 28 19 c143 98 315 192 352 192 9 0 33 -17 53 -38 l37 -38 -2 -837 -3
-837 -210 134 -209 133 -22 69 -23 69 0 -1318 c-1 -1315 -1 -1318 19 -1307 35
19 78 -18 64 -55 -8 -20 -51 -30 -68 -16 -20 17 -26 -739 -26 -3319 1 -1877 3
-2288 14 -2350 26 -143 87 -274 172 -368 l40 -45 143 197 c79 108 145 195 148
193 2 -3 -59 -91 -137 -197 -77 -106 -140 -198 -140 -204 0 -20 148 -126 227
-162 148 -69 124 -68 892 -71 560 -3 696 -1 702 9 7 10 9 10 9 1 0 -10 486
-13 2395 -13 2365 0 2396 0 2385 19 -5 11 -10 23 -10 28 1 4 8 -4 16 -19 l15
-28 653 0 c719 0 762 3 900 60 102 43 256 150 256 178 0 10 -191 283 -274 391
-8 11 -8 13 0 8 6 -3 74 -93 150 -198 l139 -191 40 45 c53 59 102 142 132 225
55 149 53 75 53 2086 0 1024 -3 2280 -7 2792 l-6 931 -22 -5 c-12 -2 -27 4
-34 12 -9 11 -32 17 -70 18 l-56 2 49 3 c37 3 56 11 73 29 16 18 29 23 43 19
20 -6 20 2 20 1944 l0 1950 -52 -56 c-95 -100 -257 -222 -375 -282 l-43 -21 0
748 c0 441 -4 761 -10 781 -23 82 -88 158 -173 203 -40 22 -54 23 -364 28
-177 3 -325 8 -329 13 -4 4 3 7 16 7 18 0 20 3 11 14 -8 10 -9 16 -1 21 5 3
10 22 10 41 0 20 7 42 15 50 12 12 15 46 15 170 l0 154 -1576 0 c-1523 0
-1575 -1 -1554 -18 36 -29 24 -102 -16 -102 -11 0 -14 -34 -16 -177 l-2 -178
-3 174 c-3 171 -4 174 -28 193 -30 24 -32 61 -5 88 l20 20 -1671 0 -1671 0 20
-32 c39 -65 113 -208 109 -208 -3 0 -35 54 -72 120 l-67 120 -191 -1 c-144 0
-212 -5 -272 -18z m2383 -188 c18 -24 15 -54 -9 -79 -20 -21 -20 -23 -4 -85
28 -110 27 -105 17 -89 -5 8 -17 48 -27 88 -12 51 -22 72 -33 72 -8 0 -24 7
-34 17 -41 37 -3 111 50 98 15 -3 33 -13 40 -22z m2970 11 c41 -28 20 -104
-29 -104 -11 0 -19 -7 -20 -17 0 -14 -2 -15 -6 -3 -3 8 -14 26 -24 39 -25 32
-24 47 6 76 28 29 42 31 73 9z m-4718 -94 c11 -22 18 -40 15 -40 -2 0 -14 18
-25 40 -11 22 -18 40 -15 40 2 0 14 -18 25 -40z m50 -90 c11 -22 18 -40 15
-40 -2 0 -14 18 -25 40 -11 22 -18 40 -15 40 2 0 14 -18 25 -40z m4607 18 c-3
-8 -6 -5 -6 6 -1 11 2 17 5 13 3 -3 4 -12 1 -19z m-10 -40 c-3 -8 -6 -5 -6 6
-1 11 2 17 5 13 3 -3 4 -12 1 -19z m-10 -40 c-3 -8 -6 -5 -6 6 -1 11 2 17 5
13 3 -3 4 -12 1 -19z m-4547 -8 c6 -11 8 -20 6 -20 -3 0 -10 9 -16 20 -6 11
-8 20 -6 20 3 0 10 -9 16 -20z m300 -960 l0 -39 117 -3 118 -3 73 -125 c62
-106 73 -130 69 -160 -7 -48 -168 -332 -198 -348 -17 -9 -72 -12 -196 -10
-157 3 -174 5 -192 23 -39 40 -181 309 -181 342 0 35 156 325 187 349 12 9 49
13 111 14 l92 0 0 -40z m-1585 -20 c21 -22 37 -40 34 -40 -3 0 -23 18 -44 40
-21 22 -37 40 -34 40 3 0 23 -18 44 -40z m4255 -35 l0 -45 -55 0 -55 0 0 45 0
45 55 0 55 0 0 -45z m1623 11 c74 -31 112 -109 111 -231 0 -98 -24 -159 -80
-201 -33 -26 -45 -29 -109 -29 -64 0 -76 3 -109 29 -55 41 -79 103 -80 201 -2
160 63 244 187 245 26 0 62 -6 80 -14z m475 -15 c59 -41 77 -91 77 -211 0 -96
-2 -109 -27 -152 -69 -117 -246 -117 -315 0 -21 36 -28 61 -31 126 -7 127 25
208 98 248 50 27 153 22 198 -11z m412 -166 l0 -195 50 0 50 0 0 -40 0 -40
-160 0 -160 0 0 40 0 40 50 0 50 0 0 154 0 155 -32 -10 c-18 -5 -43 -9 -56 -9
-21 0 -23 4 -20 38 3 35 6 38 48 49 25 6 75 12 113 12 l67 1 0 -195z m478 166
c59 -41 77 -91 77 -211 0 -96 -2 -109 -27 -152 -69 -117 -246 -117 -315 0 -21
36 -28 61 -31 126 -7 127 25 208 98 248 50 27 153 22 198 -11z m-4152 -6 c62
-18 131 -76 155 -129 27 -60 25 -153 -4 -197 -42 -64 -177 -108 -177 -58 l0
20 -26 -20 c-41 -32 -87 -27 -132 13 -36 34 -37 36 -37 106 0 70 1 72 37 106
45 40 91 45 132 13 l26 -20 0 20 c0 17 6 21 30 21 l30 0 0 -110 c0 -119 7
-131 48 -87 49 52 48 136 -1 201 -39 50 -89 71 -172 71 -59 0 -78 -5 -117 -28
-69 -40 -103 -102 -103 -188 0 -56 5 -73 30 -114 43 -69 118 -108 196 -103 31
2 74 14 98 26 41 22 44 22 57 5 19 -25 13 -35 -35 -61 -93 -52 -230 -36 -313
38 -136 120 -124 338 26 438 80 53 159 65 252 37z m-3021 -25 c10 -11 16 -20
13 -20 -3 0 -13 9 -23 20 -10 11 -16 20 -13 20 3 0 13 -9 23 -20z m3413 -78
l4 -24 24 23 c17 16 40 24 78 27 50 4 56 2 93 -32 41 -37 63 -88 63 -146 0
-58 -22 -109 -63 -146 -37 -34 -43 -36 -93 -32 -39 3 -61 11 -79 28 l-25 23 0
-91 0 -92 -60 0 -60 0 0 238 c0 131 3 242 7 246 4 4 30 6 58 4 44 -3 50 -6 53
-26z m602 -21 l0 -49 -39 5 c-81 11 -111 -36 -111 -177 l0 -90 -55 0 -55 0 0
175 0 175 55 0 c53 0 55 -1 55 -27 l0 -27 28 26 c32 30 46 36 90 37 32 1 32 1
32 -48z m586 18 c34 -32 44 -78 44 -211 l0 -118 -54 0 -53 0 -5 120 c-6 129
-13 150 -57 150 -57 0 -71 -32 -71 -164 l0 -106 -55 0 -55 0 0 175 0 175 55 0
c50 0 55 -2 55 -22 0 -20 1 -20 18 -5 47 43 135 46 178 6z m403 20 c28 -10 31
-15 31 -54 l0 -44 -35 15 c-90 37 -157 -1 -157 -91 0 -90 67 -128 157 -91 l35
15 0 -44 c0 -39 -3 -44 -31 -54 -65 -22 -163 -9 -215 29 -86 62 -86 228 0 290
52 38 150 51 215 29z m375 -9 c56 -27 88 -78 94 -146 l4 -54 -131 0 c-72 0
-131 -4 -131 -9 0 -4 9 -20 21 -35 18 -23 28 -26 80 -26 33 0 76 7 96 15 19 8
37 15 39 15 2 0 4 -18 4 -40 0 -35 -4 -42 -27 -51 -46 -17 -154 -22 -202 -9
-96 26 -145 122 -117 229 7 28 22 61 32 73 50 56 164 74 238 38z m-1194 -165
l0 -175 -55 0 -55 0 0 175 0 175 55 0 55 0 0 -175z m-3850 -72 l-1 -48 -30 35
c-27 32 -28 36 -12 47 32 24 43 16 43 -34z m5800 -864 c331 -29 724 -129 1020
-259 412 -181 724 -392 1053 -709 l87 -85 0 -537 0 -537 95 31 c73 24 95 35
95 49 0 10 12 24 26 30 23 11 29 10 45 -11 33 -40 -9 -86 -56 -61 -20 11 -36
8 -112 -17 l-88 -30 -3 -511 -2 -512 57 -2 58 -2 -57 -3 -58 -4 -2 -281 -3
-282 -48 72 c-26 39 -53 77 -60 84 -7 7 -24 31 -39 52 -45 66 -309 336 -373
381 -33 24 -91 57 -130 75 -38 18 -97 45 -130 61 -33 15 -100 41 -150 58 -49
16 -130 48 -180 71 -115 54 -300 121 -345 126 -19 2 -56 5 -83 7 -46 3 -78 20
-64 34 4 4 40 -1 79 -10 83 -20 105 -12 70 26 -12 13 -22 26 -22 30 0 4 35 7
78 7 43 0 82 3 85 6 10 10 -12 44 -29 44 -21 0 -74 29 -74 40 0 6 18 7 44 4
51 -7 63 4 44 43 -10 20 -21 28 -42 29 -33 1 -43 14 -51 67 -9 49 17 96 40 73
37 -37 156 -30 205 11 39 33 40 70 1 107 -29 28 -39 29 -72 4 -13 -9 -25 -7
-55 9 -52 27 -54 46 -6 65 32 13 44 25 66 71 14 31 26 70 26 86 0 17 3 31 8
31 4 1 40 2 80 3 78 2 105 18 95 56 -2 9 3 23 11 30 21 18 20 44 -3 72 l-19
24 -11 -27 c-12 -33 -37 -36 -88 -11 -22 10 -41 29 -49 49 -27 65 -12 214 22
214 7 0 16 12 20 28 3 15 13 54 21 87 24 95 34 236 22 302 -21 113 -95 223
-283 421 -51 53 -64 62 -95 62 -27 0 -56 13 -111 51 -89 59 -163 99 -186 99
-9 0 -34 15 -55 34 -38 35 -168 102 -253 131 -69 24 -192 35 -251 23 -81 -17
-129 -13 -172 13 -34 21 -50 24 -138 24 -116 -1 -175 -16 -310 -80 -95 -46
-141 -84 -243 -203 -35 -40 -61 -62 -75 -62 -49 -1 -105 -40 -199 -141 -172
-184 -252 -301 -300 -439 -19 -58 -74 -168 -117 -235 -52 -82 -141 -267 -161
-334 -13 -46 -20 -97 -20 -155 0 -141 28 -181 188 -260 39 -20 52 -32 52 -49
0 -26 33 -92 63 -124 11 -13 40 -32 64 -44 23 -11 43 -24 43 -27 0 -4 -17 -16
-38 -27 -47 -25 -56 -61 -18 -71 41 -10 88 4 125 36 18 17 37 30 41 30 13 0
19 -13 12 -24 -33 -52 -41 -160 -17 -240 10 -34 12 -59 6 -87 -8 -34 -7 -39 9
-39 10 0 20 9 23 21 6 21 6 21 37 3 26 -16 30 -23 24 -46 -5 -27 8 -39 21 -18
3 6 27 10 53 10 26 0 54 4 62 10 9 6 19 5 28 -2 11 -10 12 -5 6 27 -5 27 -4
36 5 31 12 -8 14 -51 2 -80 -7 -19 -8 -19 -15 -1 -6 17 -9 16 -26 -10 -26 -39
-27 -64 -2 -43 9 9 23 13 31 10 7 -2 17 2 22 9 6 10 9 6 9 -13 0 -24 4 -28 30
-28 20 0 35 8 46 25 18 28 34 33 34 11 0 -13 65 -60 135 -97 16 -9 35 -26 41
-38 7 -13 25 -37 42 -54 16 -18 32 -45 36 -60 6 -24 11 -28 34 -25 21 2 30 11
38 36 l11 34 30 -36 c38 -42 47 -69 34 -94 -23 -44 23 -43 94 2 32 21 61 33
72 30 12 -3 32 4 49 18 26 21 33 23 62 13 l33 -11 -53 -40 c-29 -22 -69 -52
-89 -66 -20 -15 -55 -45 -79 -67 -24 -23 -47 -41 -51 -41 -3 0 -97 -91 -208
-202 -211 -211 -256 -270 -316 -411 -31 -73 -41 -83 -101 -92 -38 -6 -41 -5
-143 94 -113 111 -147 125 -169 76 -11 -24 -10 -25 18 -25 36 0 44 -13 45 -70
0 -39 -4 -48 -28 -63 -24 -15 -47 -52 -47 -77 0 -5 14 -17 31 -26 l31 -16 -21
-15 c-31 -21 -26 -77 7 -81 15 -2 22 2 22 12 0 9 4 16 10 16 5 0 7 -7 4 -15
-6 -16 4 -19 30 -9 21 8 21 24 0 24 -8 0 -12 5 -9 10 3 6 19 10 36 10 18 0 33
7 41 20 16 25 28 26 28 1 0 -11 5 -23 10 -26 6 -3 10 -30 10 -58 0 -70 8 -80
58 -75 35 3 42 0 51 -19 8 -17 19 -23 44 -23 19 0 37 3 41 7 4 4 22 6 40 5 23
-2 35 2 39 12 4 9 13 13 22 10 11 -5 15 1 15 19 0 14 -4 29 -10 32 -16 10 -11
25 9 25 10 0 24 7 31 15 7 8 25 15 41 15 25 0 29 4 29 29 0 28 0 28 67 30 37
1 69 4 71 6 10 10 -21 33 -36 29 -15 -5 -15 -4 1 6 21 14 22 30 1 30 -9 0 -14
6 -12 13 3 7 33 15 75 18 74 7 97 14 88 28 -2 5 2 23 11 40 15 30 15 34 -2 52
-9 10 -24 18 -33 17 -12 -2 -15 4 -13 21 2 15 0 21 -8 16 -7 -5 -10 7 -7 40 4
46 36 95 63 95 19 0 58 -52 93 -124 21 -45 40 -70 57 -76 21 -8 24 -16 24 -62
0 -32 9 -71 21 -98 11 -25 29 -70 40 -100 10 -30 25 -59 32 -65 19 -14 37 -50
37 -72 0 -10 16 -33 35 -52 l35 -34 -20 -22 c-17 -18 -33 -21 -107 -24 -113
-3 -208 -17 -255 -38 -47 -20 -48 -33 -3 -33 25 0 33 -4 29 -14 -8 -20 -2 -22
150 -56 76 -17 143 -36 149 -43 22 -23 13 -75 -20 -110 -38 -40 -48 -67 -26
-67 12 0 13 -3 4 -14 -16 -19 -10 -67 11 -88 19 -19 16 -39 -13 -76 -10 -13
-15 -31 -12 -45 3 -12 2 -19 -2 -14 -5 4 -17 0 -27 -10 -10 -9 -18 -11 -18 -6
0 6 7 16 15 23 16 13 16 53 1 67 -5 4 -7 -2 -4 -14 8 -29 -33 -69 -59 -58 -16
7 -15 9 7 14 14 4 25 13 26 21 1 9 -1 10 -3 3 -3 -7 -13 -13 -23 -13 -10 0
-22 -5 -25 -10 -10 -15 -35 -12 -35 5 0 8 -3 14 -7 14 -21 -3 -35 4 -68 32
-28 25 -35 28 -35 13 0 -15 -2 -16 -17 -2 -12 11 -25 13 -38 8 -33 -14 -45
-11 -56 14 -6 13 -20 27 -30 29 -11 3 -17 1 -14 -3 3 -5 1 -11 -5 -15 -6 -4
-7 -11 -4 -17 4 -7 2 -8 -4 -4 -7 4 -12 17 -12 28 0 25 -27 58 -48 58 -8 0
-21 -8 -28 -17 -13 -17 -15 -16 -34 7 -11 14 -20 30 -20 36 0 6 -20 10 -50 8
-30 -1 -53 3 -60 11 -8 9 -3 12 22 11 24 0 34 4 36 17 3 16 1 17 -16 6 -26
-17 -69 1 -81 33 -9 23 -9 22 -22 -7 l-12 -30 -9 52 -9 53 -27 -13 c-38 -18
-71 -11 -78 19 -8 30 -24 32 -24 2 0 -12 -3 -19 -6 -16 -11 12 8 77 25 81 15
4 15 5 -1 6 -9 0 -24 -6 -32 -15 -21 -20 -38 -9 -30 22 4 14 2 24 -5 24 -6 0
-11 -9 -11 -20 0 -11 -4 -20 -10 -20 -9 0 -11 7 -9 27 1 12 -43 24 -62 18 -11
-4 -19 -2 -19 4 0 16 85 13 127 -4 41 -18 99 -20 109 -4 3 6 -6 24 -21 39 -36
37 -121 51 -157 26 -12 -9 -30 -16 -40 -16 -10 0 -18 -7 -18 -15 0 -21 -13
-19 -28 5 -10 17 -10 20 3 20 8 0 15 5 15 11 0 7 -10 9 -25 5 -29 -7 -36 17
-9 28 14 5 12 10 -12 31 -35 30 -39 31 -41 3 -1 -11 -7 -25 -14 -29 -19 -12
-37 1 -32 22 4 15 0 19 -21 19 -21 0 -26 5 -26 24 0 13 -7 37 -15 52 -10 20
-15 23 -15 12 0 -28 -27 -21 -34 8 -6 22 -10 25 -36 19 -26 -6 -30 -4 -30 14
0 16 7 21 28 22 20 1 22 2 7 6 -40 10 -48 24 -41 78 3 27 15 77 26 109 24 71
23 61 4 81 -15 15 -18 14 -40 -6 -13 -12 -26 -36 -30 -53 -3 -17 -11 -36 -16
-43 -5 -6 -12 -47 -16 -90 -6 -79 -19 -73 -21 10 -1 34 -9 43 -35 38 -11 -2
-46 29 -46 41 0 4 7 8 15 8 17 0 20 16 4 25 -5 4 -18 0 -28 -9 -10 -9 -24 -16
-32 -16 -10 1 -9 3 4 11 9 5 17 16 17 23 0 14 -49 52 -62 49 -3 -2 -11 4 -18
11 -15 20 4 30 30 16 16 -8 20 -8 20 4 0 8 6 17 13 19 6 3 -3 3 -20 0 -30 -5
-33 -3 -33 20 0 19 -4 25 -15 21 -8 -4 -15 -15 -15 -25 0 -10 -4 -19 -9 -19
-5 0 -7 8 -4 18 2 10 -3 24 -11 31 -22 18 -20 30 4 24 24 -6 29 24 5 33 -8 4
-12 11 -8 18 4 6 -2 4 -12 -4 -10 -8 -16 -10 -13 -5 4 6 3 17 -3 25 -7 13 -9
13 -10 0 -1 -8 -1 -18 -1 -21 1 -4 -8 -5 -19 -2 -14 4 -17 9 -10 16 13 13 -4
37 -25 37 -8 0 -14 5 -14 10 0 6 10 10 23 10 21 1 20 3 -11 31 -27 24 -32 35
-28 57 6 30 -16 68 -34 57 -8 -5 -6 -12 5 -25 9 -10 15 -27 13 -37 -2 -13 -10
-5 -29 29 -23 40 -25 48 -12 60 12 13 12 16 -2 28 -14 11 -17 10 -22 -8 -7
-30 -23 -28 -23 3 0 22 9 29 31 27 4 -1 9 7 12 18 4 15 0 19 -16 17 -12 -1
-22 4 -22 11 0 14 -19 17 -21 2 -1 -5 -2 -13 -3 -17 -2 -12 -27 39 -35 70 -5
20 -2 29 9 33 8 4 15 11 15 16 0 6 -7 7 -16 4 -9 -4 -23 -1 -30 5 -12 10 -11
14 3 25 15 11 15 14 3 15 -8 1 -18 1 -22 1 -3 -1 -11 5 -18 13 -9 11 -7 13 7
10 30 -4 36 6 13 27 -16 15 -18 23 -10 33 9 10 6 16 -10 25 -11 6 -26 8 -33 4
-8 -5 -7 -2 2 9 11 14 11 18 -3 23 -9 3 -16 16 -16 29 0 13 -7 26 -16 29 -14
5 -14 7 0 22 28 27 39 54 22 54 -7 0 -16 -7 -20 -15 -3 -8 -10 -15 -16 -15
-13 0 -13 37 0 45 20 13 10 32 -14 28 -28 -6 -42 12 -25 33 10 13 14 13 28 0
15 -14 17 -13 18 4 1 11 -1 20 -5 21 -4 1 -20 2 -35 3 -15 2 -33 8 -39 14 -11
11 -1 35 12 27 13 -8 41 25 33 38 -4 7 -6 19 -5 28 3 21 -23 43 -43 36 -18 -7
-29 8 -21 30 5 11 10 13 20 4 17 -14 26 -4 26 31 0 18 -5 28 -15 28 -8 0 -15
-5 -15 -12 0 -22 -13 2 -16 29 -8 72 -13 88 -30 100 -18 14 -18 15 -1 27 10 8
19 30 21 50 2 19 8 41 13 48 7 9 4 18 -8 30 -17 16 -18 16 -23 0 -3 -9 -3 2
-1 25 3 23 1 45 -5 48 -17 11 -11 25 11 25 15 0 19 4 15 16 -3 9 -6 40 -6 70
0 31 -4 53 -8 50 -5 -3 -7 -32 -6 -66 3 -47 0 -60 -11 -60 -10 0 -15 17 -17
68 -2 53 -6 66 -18 64 -10 -1 -9 2 4 13 11 8 23 15 28 15 4 0 7 10 5 23 -2 19
2 22 26 19 15 -2 27 1 27 7 0 6 -11 11 -25 11 -35 0 -48 37 -33 94 9 34 9 53
-3 92 -15 55 -14 72 8 94 13 13 14 12 13 -15 -3 -48 -1 -52 15 -21 17 32 19
50 6 42 -5 -4 -7 3 -4 14 3 11 0 20 -6 20 -6 0 -11 -4 -11 -10 0 -5 -7 -10
-15 -10 -8 0 -15 7 -15 16 0 8 5 12 10 9 18 -11 23 26 7 42 -15 15 -15 17 1
29 14 10 15 15 5 25 -19 19 -16 27 10 31 22 3 24 10 13 55 -3 15 1 26 12 33 9
5 12 10 5 10 -11 0 -12 17 -2 35 4 6 6 22 5 38 -2 28 12 35 32 15 6 -6 15 -8
19 -4 5 4 -2 16 -15 27 -27 21 -21 41 11 37 18 -2 22 2 23 26 1 20 -4 30 -18
34 -11 3 -15 8 -9 11 14 9 2 51 -15 51 -8 0 -14 5 -14 11 0 6 7 9 15 6 19 -8
28 8 16 30 -7 15 -4 21 16 30 21 10 23 10 13 -2 -10 -12 -8 -16 6 -22 11 -3
22 -11 26 -17 4 -6 10 -7 14 -4 3 4 -1 14 -10 23 -18 18 -21 35 -6 35 6 0 10
5 10 10 0 6 -12 9 -26 8 -15 -2 -29 2 -31 9 -2 7 8 13 24 15 20 2 28 9 28 23
0 13 6 19 17 17 9 -1 19 2 23 8 3 5 -1 10 -9 10 -20 0 -21 24 -1 40 8 7 15 18
15 25 0 6 9 20 20 30 11 10 20 31 20 46 0 19 6 30 21 34 l21 7 -21 15 c-23 16
-20 36 4 26 9 -3 23 1 32 8 15 13 14 14 -10 19 -26 5 -26 5 -10 38 16 32 40
41 60 21 7 -7 13 -7 17 -1 5 9 -22 40 -31 35 -11 -8 -18 0 -19 22 -2 25 10 33
21 15 10 -16 35 -12 35 6 0 12 6 15 21 11 23 -6 38 18 21 35 -6 6 -16 2 -31
-13 -26 -28 -38 -18 -22 17 6 15 14 24 18 21 4 -5 58 16 72 29 2 2 -2 10 -9
19 -12 15 -11 16 12 19 6 0 13 7 16 14 2 7 0 12 -5 11 -20 -4 -33 2 -33 15 0
22 19 30 36 15 8 -6 18 -9 21 -5 4 4 2 10 -4 14 -6 4 -13 16 -15 27 -2 15 3
19 22 20 20 0 27 7 34 38 5 20 13 37 17 37 4 0 5 10 1 23 -5 19 -4 20 11 8 18
-14 52 -7 42 9 -3 5 -1 10 5 10 7 0 9 8 5 20 -8 27 29 68 47 52 9 -7 19 -7 28
-2 12 8 11 10 -5 10 -20 1 -20 1 -1 15 12 9 15 15 7 15 -11 0 -11 3 0 16 7 8
21 13 32 10 28 -7 50 4 37 19 -8 9 21 26 117 70 565 255 1113 348 1733 294z
m-502 -346 c-10 -2 -28 -2 -40 0 -13 2 -5 4 17 4 22 1 32 -1 23 -4z m75 0 c-7
-2 -21 -2 -30 0 -10 3 -4 5 12 5 17 0 24 -2 18 -5z m-1578 -163 c-3 -5 -13
-10 -21 -10 -8 0 -14 5 -14 10 0 6 9 10 21 10 11 0 17 -4 14 -10z m-3983 -276
l188 -116 -1 -581 -1 -582 -34 120 c-49 169 -84 291 -100 355 -21 78 -21 78
-44 155 -18 58 -55 191 -100 350 -4 17 -22 73 -38 125 -96 303 -96 304 -74
295 10 -3 101 -58 204 -121z m3808 11 c0 -9 -9 -15 -25 -15 -31 0 -33 17 -2
23 12 2 23 5 25 6 1 0 2 -6 2 -14z m-170 -211 c0 -8 -4 -12 -10 -9 -5 3 -10
10 -10 16 0 5 5 9 10 9 6 0 10 -7 10 -16z m-23 -123 c10 -15 9 -22 -2 -31 -8
-7 -15 -7 -19 -1 -4 5 -2 13 4 16 8 5 7 11 -1 21 -6 8 -7 14 -3 14 5 0 15 -9
21 -19z m1918 -218 c31 -15 106 -108 144 -176 12 -21 30 -77 40 -126 11 -49
31 -111 44 -138 24 -48 26 -70 12 -160 -5 -38 -11 -46 -46 -64 -39 -20 -58
-43 -45 -56 6 -6 21 -2 78 22 13 5 19 0 24 -22 11 -45 45 -100 70 -114 13 -7
24 -16 24 -20 0 -14 92 -59 121 -59 33 0 35 6 14 46 -12 25 -13 31 -1 43 20
19 60 7 98 -29 26 -26 39 -30 84 -30 60 0 66 -9 39 -59 -13 -26 -13 -30 0 -41
22 -18 18 -81 -7 -129 -28 -50 -119 -127 -171 -143 -92 -28 -245 39 -283 124
-25 55 -25 160 -2 207 18 33 11 71 -12 71 -14 0 -56 -71 -65 -108 -5 -25 -12
-32 -31 -32 -14 0 -47 -11 -74 -25 -28 -14 -50 -22 -50 -18 0 14 -50 63 -64
63 -7 0 -18 -11 -26 -24 -11 -21 -10 -28 10 -56 42 -58 19 -214 -42 -288 -48
-60 -86 -77 -168 -76 -167 1 -262 90 -244 227 4 31 2 52 -5 61 -16 19 -41 9
-41 -15 0 -29 -15 -23 -44 19 -22 32 -26 50 -28 110 -1 52 2 77 13 87 25 25
214 84 295 92 43 5 79 13 81 19 2 6 -4 21 -14 33 l-18 22 -105 -16 c-58 -10
-133 -27 -167 -40 -34 -12 -65 -20 -68 -17 -3 3 -5 35 -5 72 0 62 2 68 26 78
44 21 206 52 265 52 64 0 80 12 54 40 -20 22 -71 19 -224 -11 -52 -10 -96 -17
-98 -15 -8 8 26 138 45 168 11 18 28 60 37 93 41 141 60 192 84 230 45 72 60
83 117 91 35 4 54 11 54 20 0 19 75 37 121 29 21 -4 45 -2 54 3 21 11 60 5
100 -15z m-2045 -228 c0 -18 -17 -28 -25 -15 -4 6 -11 8 -16 5 -5 -4 -9 0 -9
7 0 8 11 15 25 16 16 1 25 -3 25 -13z m757 -137 c-3 -7 -5 -2 -5 12 0 14 2 19
5 13 2 -7 2 -19 0 -25z m-13 -217 c4 -5 2 -12 -3 -15 -9 -6 -21 52 -20 94 1
14 5 4 9 -22 5 -26 11 -51 14 -57z m-884 53 c0 -8 -5 -12 -10 -9 -6 4 -8 11
-5 16 9 14 15 11 15 -7z m3679 -41 c29 -4 38 -9 29 -14 -18 -12 -45 -11 -90 2
-31 8 -38 15 -38 35 l0 25 28 -21 c16 -12 48 -24 71 -27z m-159 -23 c0 -46
-11 -61 -38 -53 -22 5 -31 23 -12 23 6 0 10 6 8 13 -1 6 4 27 11 45 17 40 31
26 31 -28z m-2687 -106 c8 -17 29 -45 45 -62 36 -39 22 -42 -25 -6 -43 32 -73
100 -73 163 0 71 14 71 26 -1 6 -34 18 -77 27 -94z m54 54 c-3 -7 -5 -2 -5 12
0 14 2 19 5 13 2 -7 2 -19 0 -25z m-4229 -67 c13 -24 30 -33 99 -52 46 -13 83
-27 83 -31 0 -12 -8 -10 -93 18 -67 22 -83 24 -102 14 -45 -24 -87 18 -59 58
21 31 52 28 72 -7z m4268 20 c-3 -4 3 -16 14 -26 11 -10 20 -23 20 -29 -1 -13
-50 41 -50 55 0 5 5 9 11 9 5 0 8 -4 5 -9z m2328 -41 c57 0 86 -58 86 -169 0
-54 -5 -75 -29 -116 -35 -62 -54 -78 -111 -98 -85 -29 -97 -30 -104 -2 -4 14
-11 25 -16 25 -13 0 -28 -32 -23 -48 6 -16 -23 -125 -44 -167 -29 -57 -158
-220 -233 -295 -41 -41 -114 -102 -162 -134 -82 -55 -93 -60 -179 -73 l-91
-13 -185 45 c-142 35 -210 58 -289 96 -141 68 -182 116 -269 314 l-64 146 27
-3 c22 -3 28 -9 33 -43 15 -85 52 -135 129 -175 87 -45 240 -50 304 -11 104
65 186 199 186 305 0 46 3 56 25 70 14 9 38 19 54 22 25 5 29 3 35 -26 11 -59
57 -147 87 -169 16 -12 60 -34 97 -48 162 -62 299 -20 410 126 41 55 55 101
49 167 -6 58 -4 63 23 89 26 25 30 26 63 14 27 -9 39 -10 49 -1 13 10 61 102
88 167 7 17 15 24 17 18 3 -7 19 -13 37 -13z m-614 -46 c0 -3 -6 -12 -14 -20
-12 -12 -18 -12 -43 2 -21 12 -23 15 -7 11 12 -2 28 -1 35 4 16 10 29 12 29 3z
m319 -105 c-19 -12 -29 -11 -29 1 0 6 7 10 15 10 8 0 15 6 16 13 0 8 2 8 6 -2
3 -7 -1 -17 -8 -22z m626 -89 c-5 -8 -68 -30 -88 -30 -19 0 7 20 36 29 43 12
59 13 52 1z m-2425 -65 c0 -18 0 -18 -41 0 l-34 14 38 1 c26 0 37 -4 37 -15z
m-1145 -54 c3 -5 1 -12 -5 -16 -5 -3 -10 1 -10 9 0 18 6 21 15 7z m1375 -46
c18 -9 30 -24 30 -35 0 -13 7 -20 20 -20 15 0 27 -15 45 -52 39 -85 55 -129
55 -150 0 -10 9 -36 20 -57 16 -31 17 -40 6 -44 -8 -3 -23 1 -34 9 -13 9 -23
11 -27 4 -11 -17 -73 -12 -84 8 -10 16 -12 15 -31 -8 -12 -15 -18 -18 -14 -7
3 9 2 17 -3 17 -21 0 -64 47 -73 80 -22 77 -10 165 33 238 22 37 19 36 57 17z
m-1393 -77 c-3 -8 -6 -5 -6 6 -1 11 2 17 5 13 3 -3 4 -12 1 -19z m63 -128 c0
-16 -4 -30 -10 -30 -11 0 -14 43 -3 53 11 12 13 8 13 -23z m3080 -115 c0 -17
19 -27 59 -30 14 -1 36 -3 48 -3 l21 -2 -20 -52 c-11 -29 -29 -80 -42 -113
-20 -54 -72 -155 -93 -180 -5 -5 -21 -31 -35 -56 -35 -60 -113 -146 -150 -165
-37 -19 -265 -32 -294 -16 -11 6 -39 13 -62 17 -24 3 -59 16 -78 27 -34 20
-36 24 -30 60 4 27 3 38 -6 39 -10 0 -10 2 0 6 7 3 22 -7 33 -21 11 -14 41
-38 65 -52 64 -38 148 -32 230 16 100 59 208 178 258 285 11 22 30 54 43 72
14 18 22 37 19 42 -8 13 16 141 26 141 5 0 8 -7 8 -15z m-3014 -252 c-8 -8
-36 5 -36 17 0 7 6 7 21 0 11 -7 18 -14 15 -17z m-2328 -320 l2 -243 65 0 65
0 0 -50 0 -50 -205 0 -205 0 0 50 0 49 68 3 67 3 3 189 2 189 -32 -7 c-18 -4
-50 -9 -70 -13 l-38 -6 0 50 0 50 68 15 c37 9 99 15 137 14 l70 -1 3 -242z
m622 62 l0 -185 45 0 45 0 0 -55 0 -55 -45 0 -45 0 0 -55 0 -56 -67 3 -68 3
-3 53 -3 52 -130 0 -129 0 0 62 0 62 118 178 117 178 83 0 82 0 0 -185z
m-1852 148 c-16 -2 -40 -2 -55 0 -16 2 -3 4 27 4 30 0 43 -2 28 -4z m150 -10
c-15 -2 -42 -2 -60 0 -18 2 -6 4 27 4 33 0 48 -2 33 -4z m8310 0 c-15 -2 -42
-2 -60 0 -18 2 -6 4 27 4 33 0 48 -2 33 -4z m-8200 -10 c-10 -2 -28 -2 -40 0
-13 2 -5 4 17 4 22 1 32 -1 23 -4z m5597 -83 c3 -5 -3 -10 -15 -10 -12 0 -18
5 -15 10 3 6 10 10 15 10 5 0 12 -4 15 -10z m-2015 -600 c0 -5 -2 -10 -4 -10
-3 0 -8 5 -11 10 -3 6 -1 10 4 10 6 0 11 -4 11 -10z m37 -26 c-3 -3 -12 -4
-19 -1 -8 3 -5 6 6 6 11 1 17 -2 13 -5z m-2487 -25 c0 -24 -23 -21 -28 4 -2
10 3 17 12 17 10 0 16 -9 16 -21z m270 -99 c0 -100 -2 -120 -15 -120 -12 0
-15 20 -15 120 0 100 3 120 15 120 13 0 15 -20 15 -120z m1190 0 c0 -100 -2
-120 -15 -120 -8 0 -15 5 -15 10 0 7 -6 7 -19 0 -56 -29 -111 11 -111 80 0 69
55 109 111 80 17 -10 19 -7 19 30 0 29 4 40 15 40 13 0 15 -20 15 -120z
m-1821 4 c23 -58 41 -110 41 -115 0 -22 -29 -6 -39 21 -9 28 -13 30 -61 30
-48 0 -53 -2 -63 -30 -7 -17 -19 -30 -29 -30 -15 0 -16 3 -3 33 7 17 27 69 45
115 44 115 56 112 109 -24z m239 78 c3 -17 10 -22 33 -22 16 0 29 -4 29 -10 0
-5 -13 -10 -30 -10 l-30 0 0 -65 c0 -65 0 -66 30 -71 40 -9 38 -24 -3 -24 -48
0 -57 15 -57 91 0 44 -4 69 -12 73 -10 5 -10 7 0 12 6 3 12 17 12 31 0 30 24
26 28 -5z m-128 -32 c0 -7 6 -7 19 0 28 15 51 12 51 -5 0 -9 -9 -15 -23 -15
-37 0 -47 -19 -47 -87 0 -49 -3 -63 -15 -63 -12 0 -15 17 -15 90 0 73 3 90 15
90 8 0 15 -5 15 -10z m250 -80 c0 -73 -3 -90 -15 -90 -12 0 -15 17 -15 90 0
73 3 90 15 90 12 0 15 -17 15 -90z m188 70 c2 -11 -8 -15 -40 -15 -35 0 -44
-4 -58 -27 -13 -25 -13 -31 0 -55 14 -24 23 -28 58 -28 32 0 42 -4 40 -15 -2
-9 -17 -16 -39 -18 -48 -4 -87 29 -96 80 -5 32 -1 41 26 68 25 26 37 31 68 28
24 -2 39 -9 41 -18z m267 -5 c14 -13 25 -33 25 -45 0 -18 -6 -20 -65 -20 -69
0 -78 -8 -52 -44 10 -14 24 -17 60 -15 31 3 47 0 47 -7 0 -33 -92 -32 -125 1
-54 53 -18 155 55 155 19 0 40 -9 55 -25z m169 19 c29 -11 16 -24 -22 -22 -22
0 -44 -2 -50 -6 -19 -12 -2 -34 31 -42 64 -13 87 -59 45 -88 -37 -26 -118 -19
-118 10 0 17 -2 16 35 5 35 -10 79 3 73 21 -3 7 -25 20 -49 28 -37 13 -45 20
-47 45 -6 45 47 70 102 49z m199 -6 c4 -10 7 -10 18 0 18 17 59 15 59 -3 0
-10 -10 -15 -30 -15 -37 0 -50 -27 -50 -101 0 -37 -4 -49 -15 -49 -12 0 -15
17 -15 90 0 71 3 90 14 90 8 0 16 -6 19 -12z m226 -14 c12 -15 21 -35 21 -45
0 -17 -8 -19 -65 -19 -69 0 -78 -8 -52 -44 10 -14 24 -17 60 -15 47 4 66 -12
31 -25 -69 -26 -134 15 -134 84 0 81 92 123 139 64z m181 8 c18 -15 23 -31 28
-90 4 -68 4 -72 -17 -72 -11 0 -21 5 -21 12 0 9 -3 9 -12 0 -15 -15 -53 -16
-79 -2 -13 7 -19 21 -19 45 0 40 20 55 75 55 29 0 36 3 33 18 -3 13 -14 17
-51 17 -29 0 -47 4 -47 12 0 27 78 31 110 5z m2663 -107 c-39 -74 -41 -76 -72
-68 -21 5 -18 10 40 69 35 35 64 64 65 64 1 0 -14 -29 -33 -65z m-75 -121 c6
-2 12 -18 12 -36 l-1 -33 -28 35 -29 35 -13 -27 -12 -27 -19 24 c-11 14 -26
25 -34 25 -8 0 -12 5 -9 10 6 9 98 5 133 -6z m3097 -9 c58 -14 59 -14 11 -9
-27 3 -58 9 -70 14 -32 13 -8 11 59 -5z m-8078 -1 c-3 -3 -12 -4 -19 -1 -8 3
-5 6 6 6 11 1 17 -2 13 -5z m-54 -11 c-7 -2 -19 -2 -25 0 -7 3 -2 5 12 5 14 0
19 -2 13 -5z m4812 -2 c3 -5 1 -12 -5 -16 -5 -3 -10 1 -10 9 0 18 6 21 15 7z
m-5040 -19 l23 -19 -23 -28 c-20 -27 -25 -28 -49 -17 -28 13 -35 49 -14 70 17
17 36 15 63 -6z m178 11 c-7 -2 -19 -2 -25 0 -7 3 -2 5 12 5 14 0 19 -2 13 -5z
m8280 0 c-7 -2 -19 -2 -25 0 -7 3 -2 5 12 5 14 0 19 -2 13 -5z m225 -5 c27
-27 7 -78 -29 -78 -10 0 -26 11 -36 25 -13 18 -35 29 -83 39 -36 8 -57 14 -48
15 9 1 40 -4 69 -10 44 -9 54 -9 67 5 19 19 43 21 60 4z m-8555 -5 c-7 -2 -19
-2 -25 0 -7 3 -2 5 12 5 14 0 19 -2 13 -5z m-56 -9 c-3 -3 -12 -4 -19 -1 -8 3
-5 6 6 6 11 1 17 -2 13 -5z m4223 -94 c0 -5 -4 -10 -10 -10 -5 0 -10 5 -10 10
0 6 5 10 10 10 6 0 10 -4 10 -10z m-13 -45 c0 -8 -4 -12 -9 -9 -4 3 -8 9 -8
15 0 5 4 9 8 9 5 0 9 -7 9 -15z m183 -109 c0 -2 -7 -9 -15 -16 -12 -10 -15
-10 -15 4 0 9 7 16 15 16 8 0 15 -2 15 -4z m-123 -12 c-3 -3 -12 -4 -19 -1 -8
3 -5 6 6 6 11 1 17 -2 13 -5z m20 -30 c-3 -3 -12 -4 -19 -1 -8 3 -5 6 6 6 11
1 17 -2 13 -5z m53 -4 c0 -5 -5 -10 -11 -10 -5 0 -7 5 -4 10 3 6 8 10 11 10 2
0 4 -4 4 -10z m75 -19 c3 -5 1 -12 -5 -16 -5 -3 -10 1 -10 9 0 18 6 21 15 7z
m-2665 -17 c0 -17 -22 -14 -28 4 -2 7 3 12 12 12 9 0 16 -7 16 -16z m-860 -81
c0 -106 -6 -130 -32 -139 -26 -8 -38 5 -15 17 14 8 17 25 17 109 0 82 3 100
15 100 12 0 15 -16 15 -87z m1080 61 c0 -8 9 -14 20 -14 11 0 20 -4 20 -10 0
-5 -9 -10 -20 -10 -17 0 -20 -7 -20 -50 0 -43 3 -50 20 -50 11 0 20 -4 20 -10
0 -13 -47 -13 -55 1 -13 20 -22 124 -14 147 9 24 29 22 29 -4z m2618 -27 c2
-10 -3 -17 -12 -17 -10 0 -16 9 -16 21 0 24 23 21 28 -4z m-3567 -3 c7 -8 14
-40 17 -69 l4 -54 -33 1 c-19 0 -44 2 -55 4 -53 9 -28 84 27 84 20 0 29 4 26
13 -2 7 -19 12 -41 11 -35 -1 -48 9 -23 19 26 11 65 6 78 -9z m85 -39 c10 -30
20 -52 24 -50 4 3 13 25 20 50 12 42 26 63 35 53 3 -2 -5 -34 -17 -71 -29 -88
-48 -90 -77 -5 -24 70 -25 78 -12 78 6 0 18 -25 27 -55z m205 39 c7 -8 14 -40
17 -69 l4 -54 -33 1 c-19 0 -44 2 -55 4 -53 9 -28 84 27 84 20 0 29 4 26 13
-2 7 -19 12 -41 11 -35 -1 -48 9 -23 19 26 11 65 6 78 -9z m139 3 c0 -7 -13
-12 -32 -12 -45 0 -45 -19 2 -38 64 -25 48 -82 -21 -75 -47 4 -49 26 -2 24 49
-1 51 22 3 38 -37 12 -50 37 -30 61 15 19 80 20 80 2z m137 -3 c2 -7 -6 -10
-22 -7 -33 7 -55 -12 -55 -47 0 -35 22 -54 55 -47 16 3 24 0 22 -7 -6 -19 -57
-19 -78 0 -24 22 -25 81 -2 106 18 21 74 22 80 2z m63 4 c0 -9 3 -9 12 0 13
13 38 16 38 4 0 -4 -10 -12 -22 -17 -19 -8 -24 -19 -26 -62 -4 -78 -22 -64
-22 17 0 40 4 70 10 70 6 0 10 -5 10 -12z m100 -58 c0 -56 -3 -70 -15 -70 -12
0 -15 14 -15 70 0 56 3 70 15 70 12 0 15 -14 15 -70z m60 58 c0 -9 3 -9 12 0
33 33 88 -4 88 -58 0 -54 -55 -91 -88 -58 -9 9 -12 4 -12 -25 0 -20 -4 -37
-10 -37 -6 0 -10 38 -10 95 0 57 4 95 10 95 6 0 10 -5 10 -12z m2675 -6 c-3
-3 -11 0 -18 7 -9 10 -8 11 6 5 10 -3 15 -9 12 -12z m-91 -36 c36 -15 47 -35
48 -87 1 -24 -11 -42 -58 -90 l-58 -59 62 0 62 0 0 -30 0 -30 -110 0 -110 0 0
28 c0 21 15 43 66 92 51 49 64 69 62 88 -5 40 -31 50 -84 30 l-45 -16 3 36 c3
32 7 38 33 43 52 11 94 9 129 -5z m1416 -5 c18 -34 13 -54 -12 -48 -12 4 -28
1 -35 -4 -9 -8 -41 -5 -110 10 -54 11 -114 22 -133 23 -19 2 -34 8 -33 13 3
12 85 21 215 23 87 2 98 0 108 -17z m-1242 2 c-10 -2 -26 -2 -35 0 -10 3 -2 5
17 5 19 0 27 -2 18 -5z m72 -73 c0 -5 -4 -10 -10 -10 -5 0 -10 5 -10 10 0 6 5
10 10 10 6 0 10 -4 10 -10z m-63 -6 c-3 -3 -12 -4 -19 -1 -8 3 -5 6 6 6 11 1
17 -2 13 -5z m131 -21 c-4 -22 -22 -20 -26 1 -2 10 3 16 13 16 10 0 15 -7 13
-17z m62 -59 c0 -17 -22 -14 -28 4 -2 7 3 12 12 12 9 0 16 -7 16 -16z m-730
-144 c0 -20 -7 -20 -1594 -20 -1053 0 -1597 3 -1601 10 -3 6 -3 15 0 20 4 7
548 10 1601 10 1587 0 1594 0 1594 -20z m1407 -217 c-3 -3 -11 -2 -17 2 -8 5
-7 11 2 22 12 15 13 14 16 -1 2 -10 1 -20 -1 -23z m-4462 -68 c35 -34 35 -96
0 -130 -19 -20 -34 -25 -75 -25 l-50 0 0 90 0 90 50 0 c41 0 56 -5 75 -25z
m4725 9 c0 -8 -4 -12 -10 -9 -5 3 -10 10 -10 16 0 5 5 9 10 9 6 0 10 -7 10
-16z m-4570 -44 c58 -58 -21 -158 -82 -103 -23 20 -24 80 -1 105 21 24 58 23
83 -2z m148 7 c9 -7 16 -7 24 1 19 19 45 14 62 -10 21 -30 22 -118 1 -118 -12
0 -15 13 -15 55 0 40 -4 57 -15 61 -27 11 -45 -16 -45 -67 0 -69 -18 -61 -22
9 -3 53 -5 57 -28 57 -23 0 -25 -4 -28 -57 -2 -43 -7 -58 -17 -58 -12 0 -15
15 -15 69 l0 68 43 0 c23 1 48 -4 55 -10z m3083 -37 c34 0 69 -44 69 -86 0
-32 -8 -45 -58 -95 l-58 -58 61 -3 c57 -3 60 -4 63 -30 l3 -28 -110 0 -111 0
0 28 c0 21 15 41 66 87 52 48 67 67 67 89 0 46 -47 60 -103 31 l-30 -16 0 35
c0 33 3 36 38 41 20 4 42 8 47 10 6 2 16 2 23 -1 8 -2 22 -4 33 -4z m-336
-310 c0 -13 -184 -15 -1589 -18 -953 -1 -1594 2 -1599 7 -5 5 -6 14 -3 20 5 8
458 10 1599 9 1407 -3 1592 -5 1592 -18z m-3061 -266 c9 -3 16 -13 16 -22 0
-12 -3 -13 -12 -4 -17 17 -49 15 -76 -4 -16 -11 -22 -25 -22 -54 0 -29 6 -43
22 -54 27 -19 59 -21 76 -4 9 9 12 8 12 -4 0 -35 -68 -38 -107 -4 -22 19 -28
32 -28 66 0 34 6 47 28 66 28 24 60 30 91 18z m137 -44 c15 -9 19 -22 19 -70
0 -33 -4 -60 -10 -60 -5 0 -10 5 -10 12 0 9 -3 9 -12 0 -27 -27 -78 -4 -78 37
0 19 32 41 62 41 19 0 28 4 25 13 -2 6 -20 12 -40 12 -21 0 -37 3 -37 6 0 21
48 26 81 9z m89 -2 c0 -9 3 -9 12 0 13 13 38 16 38 4 0 -4 -10 -12 -22 -17
-19 -8 -24 -19 -26 -62 -4 -78 -22 -64 -22 17 0 40 4 70 10 70 6 0 10 -5 10
-12z m164 -4 c9 -8 16 -24 16 -35 0 -16 -7 -19 -49 -19 -44 0 -49 -2 -44 -20
6 -23 41 -35 72 -25 24 7 29 -10 5 -19 -52 -20 -104 12 -104 64 0 57 67 92
104 54z m148 -1 c10 -9 18 -24 18 -35 0 -15 -8 -18 -50 -18 -53 0 -58 -5 -36
-35 10 -14 21 -17 50 -12 36 6 50 -6 20 -17 -30 -12 -64 -6 -84 14 -58 58 21
158 82 103z m128 7 c0 -4 -11 -11 -25 -14 -23 -6 -25 -11 -25 -61 0 -42 -3
-55 -15 -55 -12 0 -15 14 -15 69 l0 68 40 0 c22 0 40 -3 40 -7z m2747 -163 l2
-122 30 -3 c25 -3 31 -8 31 -28 0 -24 -1 -24 -100 -24 l-100 0 0 25 c0 21 5
25 30 25 l30 0 0 96 0 96 -32 -4 c-28 -2 -34 1 -36 20 -4 28 24 40 93 41 l50
1 2 -123z m-1947 -187 c0 -20 -7 -20 -794 -20 -519 0 -797 3 -801 10 -3 6 -3
15 0 20 4 7 282 10 801 10 787 0 794 0 794 -20z m5795 -280 c3 -36 8 -94 11
-130 3 -36 7 -87 9 -115 2 -27 9 -113 15 -190 5 -77 12 -152 16 -167 4 -23 14
-218 17 -355 1 -24 6 -43 11 -43 15 0 -2 -217 -23 -302 -18 -70 -64 -178 -76
-178 -3 0 -4 370 -4 823 1 753 6 873 24 657z m-7185 -65 c0 -57 -4 -95 -10
-95 -6 0 -10 38 -10 95 0 57 4 95 10 95 6 0 10 -38 10 -95z m70 80 c0 -8 -4
-15 -10 -15 -5 0 -10 7 -10 15 0 8 5 15 10 15 6 0 10 -7 10 -15z m-146 -1 c9
-3 16 -13 16 -22 0 -12 -3 -13 -12 -4 -17 17 -49 15 -76 -4 -16 -11 -22 -25
-22 -54 0 -29 6 -43 22 -54 27 -19 59 -21 76 -4 9 9 12 8 12 -4 0 -35 -68 -38
-107 -4 -22 19 -28 32 -28 66 0 34 6 47 28 66 28 24 60 30 91 18z m146 -104
c0 -40 -4 -70 -10 -70 -6 0 -10 30 -10 70 0 40 4 70 10 70 6 0 10 -30 10 -70z
m3262 -102 l3 -123 33 -3 c26 -3 32 -7 32 -28 0 -24 -1 -24 -100 -24 l-100 0
0 25 c0 21 5 25 30 25 l30 0 0 99 0 100 -31 -9 c-23 -7 -31 -6 -36 6 -14 36
10 50 94 53 l42 1 3 -122z m-1942 -188 c0 -20 -7 -20 -794 -20 -519 0 -797 3
-801 10 -3 6 -3 15 0 20 4 7 282 10 801 10 787 0 794 0 794 -20z m-910 -385
c0 -8 -4 -15 -10 -15 -5 0 -10 7 -10 15 0 8 5 15 10 15 6 0 10 -7 10 -15z
m690 -22 c0 -29 3 -34 12 -25 33 33 88 -4 88 -58 0 -54 -55 -91 -88 -58 -9 9
-12 9 -12 0 0 -7 -4 -12 -10 -12 -6 0 -10 38 -10 95 0 57 4 95 10 95 6 0 10
-17 10 -37z m160 -58 c0 -78 -3 -95 -15 -95 -12 0 -15 17 -15 95 0 78 3 95 15
95 12 0 15 -17 15 -95z m60 80 c0 -8 -4 -15 -10 -15 -5 0 -10 7 -10 15 0 8 5
15 10 15 6 0 10 -7 10 -15z m440 0 c0 -8 -4 -15 -10 -15 -5 0 -10 7 -10 15 0
8 5 15 10 15 6 0 10 -7 10 -15z m-1920 -5 c0 -5 -16 -10 -35 -10 -31 0 -35 -3
-35 -25 0 -22 4 -25 35 -25 19 0 35 -4 35 -10 0 -5 -16 -10 -35 -10 -35 0 -35
0 -35 -45 0 -33 -4 -45 -15 -45 -12 0 -15 17 -15 90 l0 90 50 0 c28 0 50 -4
50 -10z m640 -10 c0 -15 7 -20 26 -20 14 0 23 -4 19 -10 -3 -5 -15 -10 -26
-10 -18 0 -20 -6 -17 -47 3 -41 6 -48 26 -51 29 -4 29 -22 -1 -22 -34 0 -47
19 -47 70 0 25 -5 51 -12 58 -9 9 -9 12 0 12 7 0 12 9 12 20 0 11 5 20 10 20
6 0 10 -9 10 -20z m1190 -6 c0 -8 9 -14 20 -14 11 0 20 -4 20 -10 0 -5 -9 -10
-20 -10 -17 0 -20 -7 -20 -50 0 -43 3 -50 20 -50 11 0 20 -5 20 -11 0 -6 -12
-9 -27 -7 -26 3 -28 6 -31 58 -2 30 -9 58 -15 63 -9 7 -9 10 1 14 6 2 12 14
12 24 0 11 5 17 10 14 6 -3 10 -13 10 -21z m-1726 -30 c18 -17 23 -124 6 -124
-5 0 -10 5 -10 12 0 9 -3 9 -12 0 -29 -29 -78 -7 -78 35 0 26 26 43 66 43 23
0 25 2 13 16 -8 10 -23 14 -41 12 -27 -4 -35 2 -21 15 12 13 62 7 77 -9z m90
-44 l20 -53 20 57 c11 31 26 56 32 56 9 0 6 -20 -12 -67 -14 -38 -27 -70 -29
-72 -13 -12 -33 14 -48 60 -10 30 -21 60 -24 68 -3 8 0 12 8 9 8 -3 23 -28 33
-58z m206 40 c58 -58 -21 -158 -82 -103 -23 20 -24 80 -1 105 21 24 58 23 83
-2z m130 10 c0 -4 -11 -11 -25 -14 -23 -6 -25 -11 -25 -61 0 -42 -3 -55 -15
-55 -12 0 -15 14 -15 69 l0 68 40 0 c22 0 40 -3 40 -7z m40 -60 c0 -40 -4 -70
-10 -70 -6 0 -10 30 -10 70 0 40 4 70 10 70 6 0 10 -30 10 -70z m244 48 c27
-38 20 -48 -34 -48 -36 0 -50 -4 -50 -14 0 -23 28 -39 60 -34 19 3 29 1 27 -6
-6 -19 -67 -19 -88 0 -24 21 -25 81 -2 106 23 25 68 23 87 -4z m226 2 c5 -8
10 -32 10 -52 0 -47 -24 -72 -62 -64 -26 5 -28 3 -28 -24 0 -17 -4 -30 -10
-30 -6 0 -10 38 -10 94 l0 94 45 -2 c28 -1 50 -7 55 -16z m72 -37 c2 -48 6
-58 22 -61 28 -6 46 25 46 75 0 24 5 43 10 43 6 0 10 -30 10 -70 0 -40 -4 -70
-10 -70 -5 0 -10 5 -10 12 0 9 -3 9 -12 0 -7 -7 -21 -12 -33 -12 -34 0 -45 20
-45 82 0 75 18 76 22 1z m368 -13 c0 -40 -4 -70 -10 -70 -6 0 -10 30 -10 70 0
40 4 70 10 70 6 0 10 -30 10 -70z m137 54 c2 -7 -8 -9 -26 -6 -25 3 -33 0 -42
-22 -10 -20 -10 -32 0 -52 9 -22 17 -25 42 -22 18 3 28 1 26 -6 -7 -20 -55
-18 -76 3 -44 44 -11 126 46 119 15 -2 28 -8 30 -14z m124 6 c15 -9 19 -22 19
-70 0 -33 -4 -60 -10 -60 -5 0 -10 5 -10 12 0 9 -3 9 -12 0 -27 -27 -78 -4
-78 37 0 19 32 41 62 41 19 0 28 4 25 13 -2 6 -20 12 -40 12 -21 0 -37 3 -37
6 0 21 48 26 81 9z m179 -60 c0 -40 -4 -70 -10 -70 -6 0 -10 30 -10 70 0 40 4
70 10 70 6 0 10 -30 10 -70z m140 50 c58 -58 -21 -158 -82 -103 -23 20 -24 80
-1 105 21 24 58 23 83 -2z m148 8 c14 -12 17 -128 2 -128 -5 0 -10 26 -12 58
-3 53 -5 57 -28 57 -23 0 -25 -4 -28 -57 -2 -43 -7 -58 -17 -58 -12 0 -15 15
-15 69 l0 68 43 0 c23 1 48 -4 55 -9z m139 -3 c2 -6 -11 -10 -29 -10 -45 0
-45 -19 2 -38 45 -17 54 -49 20 -67 -25 -13 -72 -10 -77 6 -2 6 10 8 32 6 29
-4 35 -1 35 15 0 13 -11 22 -32 28 -36 11 -47 37 -27 61 13 16 70 16 76 -1z
m-3057 -621 l0 -256 -37 7 c-21 4 -40 10 -43 14 -6 10 -91 31 -100 26 -22 -14
20 166 61 263 19 44 109 202 116 202 2 0 3 -115 3 -256z m1125 237 c90 -41
105 -83 105 -301 0 -218 -15 -260 -105 -301 -55 -25 -365 -28 -422 -4 -97 41
-112 82 -113 303 0 220 14 262 105 303 34 16 66 19 215 19 149 0 181 -3 215
-19z m840 0 c90 -41 105 -83 105 -301 0 -218 -15 -260 -105 -301 -55 -25 -365
-28 -422 -4 -97 41 -112 82 -113 303 0 220 14 262 105 303 34 16 66 19 215 19
149 0 181 -3 215 -19z m840 0 c90 -41 105 -83 105 -301 0 -218 -15 -260 -105
-301 -55 -25 -365 -28 -422 -4 -97 41 -112 82 -113 303 0 220 14 262 105 303
34 16 66 19 215 19 149 0 181 -3 215 -19z m1325 -76 l0 -95 35 0 c24 0 35 5
35 15 0 8 9 15 20 15 18 0 20 -7 20 -85 0 -69 3 -85 15 -85 12 0 15 16 15 85
0 78 2 85 20 85 11 0 20 -7 20 -15 0 -10 11 -15 35 -15 l35 0 0 95 0 95 33 0
c53 -1 113 -34 144 -81 28 -42 28 -45 31 -214 2 -106 -1 -188 -8 -213 -14 -55
-68 -107 -125 -121 -77 -19 -75 -22 -75 84 l0 95 -35 0 c-24 0 -35 -5 -35 -15
0 -12 -13 -15 -55 -15 -42 0 -55 3 -55 15 0 10 -11 15 -35 15 l-34 0 -3 -92
c-3 -93 -3 -93 -28 -90 -47 7 -92 35 -118 75 -27 40 -27 41 -27 237 l0 196 28
43 c18 27 44 50 70 62 75 34 77 32 77 -76z m1345 -85 l59 -60 -29 -30 -29 -30
-41 40 -41 40 -47 -48 -47 -48 39 -38 c39 -38 40 -40 25 -68 -9 -17 -14 -32
-12 -34 2 -2 80 73 173 166 94 94 177 170 185 170 18 0 190 -183 190 -202 0
-19 -172 -188 -191 -188 -19 0 -39 20 -39 38 0 8 31 47 70 86 l70 72 -40 39
c-38 37 -39 39 -24 67 9 17 14 32 12 34 -2 2 -80 -73 -173 -166 -108 -109
-177 -170 -190 -170 -12 0 -56 35 -109 89 -75 75 -88 93 -83 113 8 31 169 188
194 188 10 0 45 -27 78 -60z m733 -102 l-3 -143 -72 -3 c-68 -3 -73 -1 -89 22
-12 20 -15 43 -12 101 4 86 11 95 76 95 35 0 42 -3 42 -20 0 -16 -7 -20 -35
-20 l-35 0 0 -65 0 -65 33 0 c25 0 37 -6 45 -22 8 -18 11 8 11 113 1 75 4 139
8 142 3 4 12 7 20 7 11 0 13 -28 11 -142z m312 117 c0 -21 -19 -28 -36 -15
-10 9 -11 16 -3 26 12 15 39 8 39 -11z m90 -104 c0 -143 -3 -161 -31 -161 -18
0 -19 9 -19 133 0 133 6 157 37 157 10 0 13 -30 13 -129z m-3320 93 c0 -3 -12
-22 -27 -41 -24 -31 -28 -46 -28 -98 0 -51 5 -69 28 -104 30 -44 30 -64 1 -40
-28 23 -54 91 -54 142 0 47 18 95 48 130 15 16 32 23 32 11z m312 -11 c30 -35
48 -83 48 -130 0 -51 -26 -119 -54 -142 -29 -24 -29 -4 1 40 23 35 28 53 28
104 0 52 -4 67 -27 98 -16 19 -28 38 -28 41 0 12 17 5 32 -11z m-132 -97 c0
-26 4 -33 18 -32 13 1 18 -8 20 -43 2 -24 -2 -49 -7 -54 -8 -8 -11 -7 -11 1 0
7 -11 17 -25 22 -21 8 -25 16 -25 52 l-1 43 -24 -30 c-14 -16 -28 -45 -31 -63
-8 -41 -28 -36 -32 8 -2 23 8 55 34 107 l38 75 23 -27 c14 -16 23 -39 23 -59z
m2949 60 c8 -9 11 -47 9 -107 l-3 -94 -72 -3 c-68 -3 -73 -1 -89 23 -14 21
-15 34 -8 63 9 36 10 37 62 40 47 3 52 1 52 -17 0 -17 -6 -21 -35 -21 -28 0
-35 -4 -35 -20 0 -16 7 -20 33 -20 25 0 37 -6 45 -22 9 -19 11 -6 11 65 l1 87
-65 0 c-36 0 -65 2 -65 4 0 2 3 11 6 20 8 21 136 23 153 2z m99 -93 c-3 -103
-4 -108 -25 -111 -22 -3 -23 -1 -23 91 0 109 4 127 31 127 18 0 19 -7 17 -107z
m194 30 l24 -78 25 75 c16 51 30 76 42 78 24 5 22 -13 -18 -146 -41 -135 -61
-158 -119 -136 -26 10 -20 44 8 44 14 0 28 4 31 10 3 5 -9 55 -26 111 -27 84
-30 102 -18 110 24 15 26 12 51 -68z m368 -38 c0 -63 -4 -105 -10 -105 -10 0
-14 23 -10 72 2 30 -30 68 -58 68 -43 0 -71 -60 -47 -99 12 -20 48 -29 75 -20
24 9 24 8 6 -6 -25 -19 -56 -19 -84 1 -27 19 -31 88 -5 116 20 22 70 23 95 1
17 -15 18 -14 18 30 0 26 5 47 10 47 6 0 10 -42 10 -105z m174 23 c18 -26 21
-48 6 -48 -5 0 -10 6 -10 14 0 21 -28 46 -52 46 -55 0 -80 -83 -36 -114 30
-21 44 -20 69 5 23 23 33 21 23 -5 -8 -21 -50 -31 -83 -20 -51 18 -65 88 -25
128 24 25 90 21 108 -6z m89 -45 l25 -68 12 30 c7 17 18 45 24 64 7 19 18 37
25 39 7 2 3 -16 -10 -50 -11 -29 -25 -63 -30 -75 -18 -49 -33 -29 -85 110 -3
9 -2 17 4 17 5 0 21 -30 35 -67z m-443 -73 c0 -5 -7 -10 -15 -10 -8 0 -15 5
-15 10 0 6 7 10 15 10 8 0 15 -4 15 -10z m-5396 -881 c-38 -42 -97 -84 -102
-71 -2 6 -15 12 -29 12 -31 0 -140 50 -147 68 -4 9 29 12 146 12 l151 0 -19
-21z m1760 -138 c-10 -83 -20 -148 -22 -146 -3 3 3 72 13 155 10 83 20 148 23
146 2 -3 -4 -72 -14 -155z m1423 127 c-3 -7 -5 -2 -5 12 0 14 2 19 5 13 2 -7
2 -19 0 -25z m10 -70 c-2 -13 -4 -5 -4 17 -1 22 1 32 4 23 2 -10 2 -28 0 -40z
m10 -80 c-2 -13 -4 -5 -4 17 -1 22 1 32 4 23 2 -10 2 -28 0 -40z m10 -90 c-2
-13 -4 -3 -4 22 0 25 2 35 4 23 2 -13 2 -33 0 -45z m25 -68 c21 0 48 -33 48
-58 0 -52 -53 -79 -95 -48 -26 19 -25 76 3 94 12 8 23 24 23 36 2 20 2 20 6
-1 2 -13 9 -23 15 -23z m-1452 -60 c0 -27 -35 -60 -62 -60 -30 0 -58 28 -58
58 0 28 26 62 47 62 7 0 13 5 13 10 0 6 14 -3 30 -20 17 -17 30 -40 30 -50z
m3050 35 c0 -5 -5 -3 -10 5 -5 8 -10 20 -10 25 0 6 5 3 10 -5 5 -8 10 -19 10
-25z m-4719 -22 c-12 -20 -14 -14 -5 12 4 9 9 14 11 11 3 -2 0 -13 -6 -23z
m4739 -28 c0 -5 -5 -3 -10 5 -5 8 -10 20 -10 25 0 6 5 3 10 -5 5 -8 10 -19 10
-25z m-4759 -22 c-12 -20 -14 -14 -5 12 4 9 9 14 11 11 3 -2 0 -13 -6 -23z"/>
<path d="M1586 10575 c-36 -63 -66 -125 -66 -138 0 -25 125 -254 136 -250 13
4 136 228 136 248 0 17 -127 255 -137 255 -2 0 -33 -52 -69 -115z"/>
<path d="M5835 10630 c-43 -47 -42 -234 1 -277 29 -29 49 -29 78 0 44 44 44
229 1 277 -23 26 -57 25 -80 0z"/>
<path d="M6287 10638 c-26 -21 -37 -64 -37 -149 0 -89 17 -144 49 -154 34 -10
62 4 77 41 17 40 19 178 3 223 -16 47 -58 64 -92 39z"/>
<path d="M7177 10638 c-26 -21 -37 -64 -37 -149 0 -89 17 -144 49 -154 34 -10
62 4 77 41 17 40 19 178 3 223 -16 47 -58 64 -92 39z"/>
<path d="M3026 10488 c-9 -12 -16 -38 -16 -58 0 -48 24 -80 60 -80 36 0 60 32
60 80 0 48 -24 80 -60 80 -18 0 -34 -8 -44 -22z"/>
<path d="M3581 10514 c-31 -39 -29 -123 2 -152 54 -51 117 -8 117 78 0 60 -28
100 -70 100 -19 0 -36 -9 -49 -26z"/>
<path d="M5381 10514 c-12 -15 -21 -31 -21 -35 0 -5 32 -9 70 -9 62 0 70 2 70
19 0 54 -83 71 -119 25z"/>
<path d="M4389 9089 c-10 -6 -4 -9 19 -9 17 0 32 2 32 4 0 9 -39 13 -51 5z"/>
<path d="M4317 9023 c-12 -11 -8 -21 13 -26 17 -4 18 -2 9 14 -11 21 -13 22
-22 12z"/>
<path d="M5130 8988 c-19 -5 -69 -10 -111 -11 -69 -2 -84 -6 -170 -51 -187
-97 -273 -166 -388 -309 -71 -90 -139 -218 -171 -324 -22 -75 -21 -93 8 -93
12 0 27 29 56 106 38 104 117 236 187 314 17 19 36 42 43 51 38 52 300 220
386 247 19 6 76 16 125 22 138 17 150 21 123 48 -14 14 -38 14 -88 0z"/>
<path d="M4240 8920 c0 -5 5 -10 10 -10 6 0 10 5 10 10 0 6 -4 10 -10 10 -5 0
-10 -4 -10 -10z"/>
<path d="M3980 8499 c0 -5 5 -7 10 -4 6 3 10 8 10 11 0 2 -4 4 -10 4 -5 0 -10
-5 -10 -11z"/>
<path d="M3786 8041 c-7 -11 22 -23 35 -15 5 3 7 10 4 15 -8 12 -32 12 -39 0z"/>
<path d="M3745 7799 c-10 -15 3 -25 16 -12 7 7 7 13 1 17 -6 3 -14 1 -17 -5z"/>
<path d="M3755 7680 c3 -5 13 -10 21 -10 8 0 12 5 9 10 -3 6 -13 10 -21 10 -8
0 -12 -4 -9 -10z"/>
<path d="M3735 7620 c3 -5 12 -10 20 -10 8 0 17 5 20 10 4 6 -5 10 -20 10 -15
0 -24 -4 -20 -10z"/>
<path d="M3715 7560 c20 -22 31 -20 22 5 -4 8 -14 15 -23 15 -16 0 -16 -2 1
-20z"/>
<path d="M3701 7144 c0 -11 3 -14 6 -6 3 7 2 16 -1 19 -3 4 -6 -2 -5 -13z"/>
<path d="M3725 6740 c-14 -15 -15 -20 -4 -20 15 1 49 23 49 34 0 13 -28 5 -45
-14z"/>
<path d="M3750 6676 c0 -8 4 -17 9 -20 5 -4 7 3 4 14 -6 23 -13 26 -13 6z"/>
<path d="M4910 6606 c0 -9 7 -16 16 -16 17 0 14 22 -4 28 -7 2 -12 -3 -12 -12z"/>
<path d="M4880 6601 c0 -6 5 -13 10 -16 6 -3 10 1 10 9 0 9 -4 16 -10 16 -5 0
-10 -4 -10 -9z"/>
<path d="M5005 6560 c3 -5 12 -10 20 -10 8 0 17 5 20 10 4 6 -5 10 -20 10 -15
0 -24 -4 -20 -10z"/>
<path d="M3874 6174 c3 -9 6 -18 6 -20 0 -3 5 -2 10 1 16 10 12 35 -6 35 -11
0 -14 -5 -10 -16z"/>
<path d="M3920 6135 c0 -8 2 -15 4 -15 2 0 6 7 10 15 3 8 1 15 -4 15 -6 0 -10
-7 -10 -15z"/>
<path d="M4201 5554 c0 -11 3 -14 6 -6 3 7 2 16 -1 19 -3 4 -6 -2 -5 -13z"/>
<path d="M4636 5486 c-14 -19 -26 -42 -26 -50 0 -23 47 -20 60 3 5 11 17 27
26 35 13 13 14 20 4 31 -19 23 -35 18 -64 -19z"/>
<path d="M4336 5341 c-4 -7 -5 -15 -2 -18 9 -9 19 4 14 18 -4 11 -6 11 -12 0z"/>
<path d="M4380 5304 c0 -9 5 -14 12 -12 18 6 21 28 4 28 -9 0 -16 -7 -16 -16z"/>
<path d="M4440 5276 c0 -9 5 -16 10 -16 6 0 10 4 10 9 0 6 -4 13 -10 16 -5 3
-10 -1 -10 -9z"/>
<path d="M4430 5240 c0 -5 4 -10 9 -10 6 0 13 5 16 10 3 6 -1 10 -9 10 -9 0
-16 -4 -16 -10z"/>
<path d="M4575 5120 c3 -5 8 -10 11 -10 2 0 4 5 4 10 0 6 -5 10 -11 10 -5 0
-7 -4 -4 -10z"/>
<path d="M5421 4891 c-50 -20 -105 -67 -96 -81 8 -13 62 -13 70 -1 3 5 29 17
58 26 66 22 72 28 55 54 -15 25 -29 26 -87 2z"/>
<path d="M5175 4780 c-19 -22 -19 -22 0 -36 10 -8 38 -14 62 -14 35 0 43 3 43
19 0 43 -74 65 -105 31z"/>
<path d="M5108 4733 c7 -3 16 -2 19 1 4 3 -2 6 -13 5 -11 0 -14 -3 -6 -6z"/>
<path d="M5060 4710 c0 -25 16 -41 34 -34 19 7 15 31 -4 26 -7 -2 -17 3 -21
10 -7 10 -9 10 -9 -2z"/>
<path d="M5305 4590 c3 -5 8 -10 11 -10 2 0 4 5 4 10 0 6 -5 10 -11 10 -5 0
-7 -4 -4 -10z"/>
<path d="M5400 4490 c0 -5 5 -10 11 -10 5 0 7 5 4 10 -3 6 -8 10 -11 10 -2 0
-4 -4 -4 -10z"/>
<path d="M5575 4460 c4 -6 11 -8 16 -5 14 9 11 15 -7 15 -8 0 -12 -5 -9 -10z"/>
<path d="M5454 7461 c-38 -10 -54 -19 -54 -33 0 -11 134 -7 146 5 11 11 -17
37 -40 36 -11 -1 -35 -4 -52 -8z"/>
<path d="M5533 7322 c-12 -2 -27 -10 -33 -18 -7 -8 -19 -14 -26 -14 -30 0 -30
-73 1 -177 13 -44 20 -52 45 -58 17 -4 30 -11 30 -16 0 -20 57 -8 89 19 l34
28 -17 83 c-19 98 -30 121 -56 121 -11 0 -20 6 -20 14 0 17 -17 23 -47 18z
m57 -172 c0 -26 -23 -52 -34 -39 -11 12 -16 49 -7 49 6 0 11 -7 11 -15 0 -8 5
-15 11 -15 5 0 8 4 5 9 -6 9 2 41 10 41 2 0 4 -14 4 -30z"/>
<path d="M4960 6761 c0 -6 5 -13 10 -16 6 -3 10 1 10 9 0 9 -4 16 -10 16 -5 0
-10 -4 -10 -9z"/>
<path d="M1837 6138 l-77 -113 76 -3 c42 -2 78 -1 81 1 2 2 2 55 1 116 l-3
113 -78 -114z"/>
<path d="M2940 5511 c-26 -50 -2 -105 45 -99 23 2 31 10 38 33 13 47 -6 85
-42 85 -20 0 -34 -7 -41 -19z"/>
<path d="M1161 5533 c-8 -21 -16 -44 -18 -50 -4 -9 7 -13 37 -13 29 0 40 4 36
13 -2 6 -10 29 -17 50 -7 20 -15 37 -19 37 -3 0 -12 -17 -19 -37z"/>
<path d="M1962 5518 c-22 -22 -13 -28 38 -28 28 0 50 4 50 8 0 16 -25 32 -50
32 -14 0 -31 -5 -38 -12z"/>
<path d="M2552 5518 c-22 -22 -13 -28 38 -28 28 0 50 4 50 8 0 16 -25 32 -50
32 -14 0 -31 -5 -38 -12z"/>
<path d="M2752 5461 c-21 -13 -10 -46 16 -49 28 -4 52 14 52 39 0 14 -7 19
-27 19 -16 0 -34 -4 -41 -9z"/>
<path d="M1183 4814 c-3 -8 0 -21 6 -27 14 -14 44 2 49 27 5 22 -46 22 -55 0z"/>
<path d="M1473 4814 c-3 -8 0 -21 6 -27 14 -14 44 2 49 27 5 22 -46 22 -55 0z"/>
<path d="M2050 4855 c-13 -34 3 -75 30 -75 12 0 25 10 32 25 15 33 -3 75 -32
75 -13 0 -24 -10 -30 -25z"/>
<path d="M1120 4190 l0 -70 29 0 c40 0 61 24 61 70 0 46 -21 70 -61 70 l-29 0
0 -70z"/>
<path d="M1298 4195 c-8 -19 -8 -31 0 -50 26 -56 84 -8 62 50 -6 15 -17 25
-30 25 -12 0 -25 -10 -32 -25z"/>
<path d="M1278 3498 c-8 -20 2 -38 21 -38 20 0 41 19 41 37 0 17 -56 17 -62 1z"/>
<path d="M1527 3554 c-15 -16 -5 -24 29 -24 24 0 34 4 32 13 -5 13 -50 22 -61
11z"/>
<path d="M1670 3545 c-11 -13 -7 -15 30 -15 37 0 41 2 30 15 -7 8 -20 15 -30
15 -10 0 -23 -7 -30 -15z"/>
<path d="M2460 2095 c-13 -34 3 -75 30 -75 12 0 25 10 32 25 15 33 -3 75 -32
75 -13 0 -24 -10 -30 -25z"/>
<path d="M1224 2055 c-14 -35 37 -50 56 -16 15 29 13 31 -20 31 -18 0 -33 -6
-36 -15z"/>
<path d="M1518 2095 c-8 -19 -8 -31 0 -50 26 -56 84 -8 62 50 -6 15 -17 25
-30 25 -12 0 -25 -10 -32 -25z"/>
<path d="M1930 2105 c-11 -13 -8 -15 25 -15 25 0 35 4 33 13 -7 18 -43 20 -58
2z"/>
<path d="M2162 2108 c-17 -17 -15 -63 4 -79 22 -18 48 0 52 35 6 45 -29 71
-56 44z"/>
<path d="M2868 2058 c-8 -20 2 -38 21 -38 20 0 41 19 41 37 0 17 -56 17 -62 1z"/>
<path d="M3178 2095 c-8 -19 -8 -31 0 -50 26 -56 84 -8 62 50 -6 15 -17 25
-30 25 -12 0 -25 -10 -32 -25z"/>
<path d="M1368 1433 c6 -2 18 -2 25 0 6 3 1 5 -13 5 -14 0 -19 -2 -12 -5z"/>
<path d="M2131 1692 c-61 -23 -132 -96 -154 -158 -37 -104 -14 -206 63 -284
86 -86 199 -104 307 -50 68 34 106 77 134 151 24 63 24 115 -1 182 -52 140
-210 211 -349 159z m149 -147 c0 -37 4 -65 10 -65 6 0 10 28 10 65 0 63 1 65
25 65 l25 0 0 -176 0 -175 -22 3 c-21 3 -23 9 -26 86 -4 102 -22 109 -22 8 0
-51 -4 -76 -12 -79 -27 -9 -38 6 -38 49 0 42 -1 44 -21 32 -18 -12 -23 -10
-45 17 l-24 30 -29 -33 c-32 -35 -41 -38 -58 -21 -9 9 -4 22 20 51 27 34 32
49 35 109 4 65 6 69 28 69 22 0 24 -4 24 -48 0 -30 8 -64 23 -92 38 -76 47
-65 47 59 l0 111 25 0 c24 0 25 -2 25 -65z"/>
<path d="M2973 1689 c-67 -26 -127 -86 -153 -155 -39 -106 -18 -205 60 -283
205 -205 538 7 444 283 -23 67 -99 141 -166 161 -68 20 -122 18 -185 -6z m7
-194 c0 -19 5 -25 23 -25 46 0 64 -55 30 -92 -18 -20 -63 -24 -81 -6 -13 13
-17 130 -5 141 15 16 33 6 33 -18z m125 5 c0 -8 -8 -16 -17 -18 -13 -2 -18 3
-18 18 0 15 5 20 18 18 9 -2 17 -10 17 -18z m90 -56 c-18 -14 -20 -55 -2 -51
6 1 12 -5 12 -13 0 -19 -32 -25 -50 -10 -8 7 -15 21 -15 31 0 11 -5 27 -11 37
-9 15 -8 24 6 46 l18 27 28 -28 c24 -24 26 -30 14 -39z m-87 -8 c5 -41 -6 -76
-23 -76 -11 0 -15 13 -15 56 0 47 3 55 18 52 10 -2 18 -14 20 -32z"/>
<path d="M2980 1415 c0 -17 5 -25 13 -22 6 2 12 12 12 22 0 10 -6 20 -12 23
-8 2 -13 -6 -13 -23z"/>
<path d="M4570 1530 c0 -20 5 -30 15 -30 10 0 15 10 15 30 0 20 -5 30 -15 30
-10 0 -15 -10 -15 -30z"/>
<path d="M4860 1530 c0 -20 5 -30 15 -30 10 0 15 10 15 30 0 20 -5 30 -15 30
-10 0 -15 -10 -15 -30z"/>
<path d="M4540 1440 c0 -38 4 -50 15 -50 11 0 15 12 15 50 0 38 -4 50 -15 50
-11 0 -15 -12 -15 -50z"/>
<path d="M4900 1440 c0 -38 4 -50 15 -50 8 0 15 7 15 15 0 8 7 15 15 15 8 0
15 9 15 20 0 11 -7 20 -15 20 -8 0 -15 7 -15 15 0 8 -7 15 -15 15 -11 0 -15
-12 -15 -50z"/>
<path d="M4570 1350 c0 -20 5 -30 15 -30 10 0 15 10 15 30 0 20 -5 30 -15 30
-10 0 -15 -10 -15 -30z"/>
<path d="M4860 1350 c0 -20 5 -30 15 -30 10 0 15 10 15 30 0 20 -5 30 -15 30
-10 0 -15 -10 -15 -30z"/>
<path d="M8611 10491 c-143 -150 -182 -195 -152 -176 13 7 323 345 318 345 -3
0 -77 -76 -166 -169z"/>
</g>
</svg>
